<?xml version="1.0" encoding="UTF-8"?>
<!DOCTYPE svg PUBLIC "-//W3C//DTD SVG 1.1//EN" "http://www.w3.org/Graphics/SVG/1.1/DTD/svg11.dtd">
<!-- Creator: CorelDRAW 2019 (64-Bit) -->
<svg xmlns="http://www.w3.org/2000/svg" xml:space="preserve" width="1.40745in" height="0.217717in" version="1.1" style="shape-rendering:geometricPrecision; text-rendering:geometricPrecision; image-rendering:optimizeQuality; fill-rule:evenodd; clip-rule:evenodd"
viewBox="0 0 321.08 49.67"
 xmlns:xlink="http://www.w3.org/1999/xlink"
 xmlns:xodm="http://www.corel.com/coreldraw/odm/2003">
 <defs>
  <style type="text/css">
   <![CDATA[
    .fil0 {fill:#FEFEFE;fill-rule:nonzero}
    .fil4 {fill:url(#id1)}
    .fil2 {fill:url(#id2)}
    .fil3 {fill:url(#id3)}
    .fil5 {fill:url(#id4)}
    .fil6 {fill:url(#id5)}
    .fil1 {fill:url(#id6)}
   ]]>
  </style>
     <clipPath id="id0">
      <path d="M-0 0.87l61.77 0 0 42.33 -61.77 0 0 -42.33z"/>
     </clipPath>
  <linearGradient id="id1" gradientUnits="userSpaceOnUse" x1="30.11" y1="11.64" x2="32.52" y2="22.28">
   <stop offset="0" style="stop-opacity:1; stop-color:#0090FF"/>
   <stop offset="1" style="stop-opacity:1; stop-color:#22216E"/>
  </linearGradient>
  <linearGradient id="id2" gradientUnits="userSpaceOnUse" xlink:href="#id1" x1="13.34" y1="17.59" x2="15.76" y2="32.54">
  </linearGradient>
  <linearGradient id="id3" gradientUnits="userSpaceOnUse" xlink:href="#id1" x1="46.85" y1="17.65" x2="49.28" y2="32.6">
  </linearGradient>
  <linearGradient id="id4" gradientUnits="userSpaceOnUse" xlink:href="#id1" x1="46.18" y1="5.18" x2="48.59" y2="15.82">
  </linearGradient>
  <linearGradient id="id5" gradientUnits="userSpaceOnUse" xlink:href="#id1" x1="14.13" y1="5.34" x2="16.38" y2="15.68">
  </linearGradient>
  <linearGradient id="id6" gradientUnits="userSpaceOnUse" xlink:href="#id1" x1="30.17" y1="23.98" x2="32.49" y2="39.03">
  </linearGradient>
 </defs>
 <g id="Layer_x0020_1">
  <metadata id="CorelCorpID_0Corel-Layer"/>
  <g id="_2331239984080">
   <path class="fil0" d="M79.21 10.74l14.75 0c1.36,0 2.08,-0.73 2.08,-2.08l0 -5.94c0,-1.35 -0.73,-2.08 -2.08,-2.08l-24.55 0c-1.36,0 -2.09,0.73 -2.09,2.08l0 33.98c0,1.36 0.73,2.08 2.09,2.08l7.71 0c1.35,0 2.08,-0.73 2.08,-2.08l0 -11.93 12.61 0c1.36,0 2.08,-0.73 2.08,-2.08l0 -5.58c0,-1.36 -0.73,-2.08 -2.08,-2.08l-12.61 0 0 -4.27z"/>
   <path id="1" class="fil0" d="M114.49 39.35c9.28,0 16.37,-6.98 16.37,-15.37 0,-8.34 -7.09,-15.32 -16.37,-15.32 -9.33,0 -16.36,6.98 -16.36,15.32 0,8.39 7.04,15.37 16.36,15.37zm0 -20.53c3.13,0 4.9,2.24 4.9,5.16 0,2.92 -1.77,5.21 -4.9,5.21 -3.13,0 -4.9,-2.29 -4.9,-5.21 0,-2.92 1.77,-5.16 4.9,-5.16z"/>
   <path id="2" class="fil0" d="M149.82 39.35c9.28,0 16.37,-6.98 16.37,-15.37 0,-8.34 -7.09,-15.32 -16.37,-15.32 -9.33,0 -16.36,6.98 -16.36,15.32 0,8.39 7.04,15.37 16.36,15.37zm0 -20.53c3.13,0 4.9,2.24 4.9,5.16 0,2.92 -1.77,5.21 -4.9,5.21 -3.13,0 -4.9,-2.29 -4.9,-5.21 0,-2.92 1.77,-5.16 4.9,-5.16z"/>
   <path id="3" class="fil0" d="M173.49 26.06l-3.7 4.95c-0.78,1.09 -0.73,2.14 0.36,2.92 4.59,3.39 10.37,5.52 16.99,5.52 10.01,0 16.05,-4.79 16.05,-12.72 0,-7.61 -5.94,-10.27 -11.62,-11.57 -5.11,-1.2 -9.95,-1.25 -9.95,-2.76 0,-1.09 1.09,-1.51 3.8,-1.51 3.08,0 6.67,0.83 9.49,2.45 1.15,0.68 2.08,0.52 2.87,-0.52l3.6 -4.9c0.78,-1.04 0.68,-2.08 -0.37,-2.92 -4.38,-3.28 -9.54,-5 -15.32,-5 -9.48,0 -16,5 -16,12.46 0,8.7 7.82,10.94 14.02,12.09 4.12,0.73 7.56,0.99 7.56,2.29 0,1.25 -1.3,1.72 -4.01,1.72 -4.06,0 -7.56,-1.2 -10.84,-3.08 -1.15,-0.63 -2.14,-0.47 -2.92,0.57l0 0z"/>
   <path id="4" class="fil0" d="M204.49 11.57l8.29 25.48c0.36,1.2 1.2,1.72 2.4,1.72l6.67 0c1.2,0 1.98,-0.57 2.4,-1.67l4.38 -11.26 4.27 11.26c0.42,1.09 1.2,1.67 2.4,1.67l6.67 0c1.2,0 2.03,-0.52 2.4,-1.72l8.29 -25.48c0.47,-1.41 -0.21,-2.35 -1.72,-2.35l-7.77 0c-1.2,0 -2.03,0.57 -2.35,1.77l-3.07 11.05 -4.48 -11.2c-0.42,-1.09 -1.25,-1.62 -2.45,-1.62l-4.43 0c-1.2,0 -2.03,0.52 -2.45,1.62l-4.53 11.2 -3.07 -11.05c-0.31,-1.2 -1.15,-1.77 -2.35,-1.77l-7.77 0c-1.51,0 -2.19,0.94 -1.72,2.35z"/>
   <path id="5" class="fil0" d="M275.43 38.77l6.88 0c1.36,0 2.08,-0.73 2.08,-2.08l0 -13.97c0,-8.91 -3.44,-14.07 -14.38,-14.07 -5.68,0 -10.37,1.46 -12.77,2.45 -1.25,0.47 -1.62,1.46 -1.25,2.66l1.3 4.22c0.42,1.36 1.3,1.72 2.61,1.36 1.88,-0.57 4.9,-1.3 8.23,-1.3 2.35,0 4.9,0.78 4.79,4.17 -2.19,-0.73 -4.79,-0.99 -6.98,-0.99 -4.69,0 -11.47,2.29 -11.47,9.02 0,6.05 4.48,9.12 11.05,9.12 4.38,0 6.83,-1.82 7.77,-3.07l0.05 1.25c0,0.78 0.78,1.25 2.08,1.25zm-6.2 -7.19c-1.98,0 -3.44,-0.83 -3.44,-2.35 0,-1.41 1.46,-2.08 3.8,-2.08 1.3,0 2.45,0.26 3.33,0.68l0 0.83c0,1.98 -1.35,2.92 -3.7,2.92z"/>
   <path id="6" class="fil0" d="M291.42 49.67l6.93 0c1.36,0 2.08,-0.73 2.08,-2.08l0 -11.99c1.88,2.19 4.59,3.75 8.39,3.75 7.5,0 12.25,-6.25 12.25,-15.27 0,-9.07 -4.74,-15.43 -12.25,-15.43 -3.8,0 -6.51,1.56 -8.39,3.8l0 -1.61c0,-1.04 -0.73,-1.62 -2.08,-1.62l-6.93 0c-1.35,0 -2.08,0.73 -2.08,2.08l0 36.27c0,1.35 0.73,2.08 2.08,2.08zm8.76 -25.75c0,-2.97 1.72,-5 4.85,-5 3.02,0 4.85,2.03 4.85,5 0,3.23 -1.82,5.16 -4.85,5.16 -3.13,0 -4.85,-1.93 -4.85,-5.16z"/>
   <g>
    <g style="clip-path:url(#id0)">
     <image x="-0" y="0.87" width="61.77" height="42.33" xlink:href="foo-logo_Images\foo-logo_ImgID1.png"/>
    </g>
   </g>
   <g>
    <g>
     <path class="fil0" d="M23.34 38.37l0 1.3 -0.03 -0 -0.31 -0.02 -0.29 -0.03 -0.28 -0.05 -0.27 -0.06 -0.25 -0.08 -0.24 -0.09 -0.23 -0.11 -0.21 -0.12 -0.2 -0.14 -0.19 -0.15 -0.17 -0.16 -0.15 -0.18 -0.14 -0.19 -0.12 -0.2 -0.11 -0.2 -0.09 -0.21 -0.08 -0.22 -0.07 -0.22 -0.06 -0.22 -0.05 -0.23 -0.04 -0.23 -0.03 -0.24 -0.02 -0.24 -0.02 -0.25 -0.01 -0.25 -0.01 -0.25 -0 -0.26 0 -0.26 0.01 -0.26 0.01 -0.27 0.01 -0.27 0.01 -0.27 1.29 0.07 -0.01 0.26 -0.01 0.26 -0.01 0.25 -0.01 0.25 -0 0.24 0 0.24 0 0.23 0.01 0.22 0.02 0.21 0.02 0.2 0.03 0.19 0.03 0.19 0.04 0.17 0.04 0.17 0.05 0.15 0.05 0.14 0.06 0.13 0.07 0.12 0.07 0.11 0.08 0.11 0.09 0.1 0.09 0.09 0.1 0.08 0.11 0.08 0.12 0.07 0.14 0.07 0.15 0.06 0.17 0.05 0.19 0.04 0.21 0.04 0.23 0.03 0.24 0.02 -0.03 -0zm0 1.3l-0 0 -0.02 -0 0.03 0zm16.25 -0.01l-16.25 0.01 0 -1.3 16.25 -0.01 0.05 1.29 -0.05 0zm0.05 -0l-0.03 0 -0.02 0 0.05 -0zm2.03 -5.78l1.28 -0.21 0.01 0.07 0.01 0.26 0.01 0.26 0.01 0.25 0.01 0.25 0 0.25 0 0.25 -0 0.25 -0.01 0.24 -0.01 0.24 -0.02 0.24 -0.03 0.23 -0.03 0.23 -0.04 0.23 -0.05 0.22 -0.06 0.22 -0.07 0.21 -0.08 0.21 -0.1 0.2 -0.11 0.2 -0.12 0.19 -0.14 0.18 -0.15 0.17 -0.17 0.16 -0.19 0.15 -0.2 0.13 -0.21 0.12 -0.23 0.1 -0.24 0.09 -0.25 0.07 -0.26 0.06 -0.28 0.04 -0.29 0.03 -0.09 -1.29 0.22 -0.02 0.2 -0.03 0.18 -0.04 0.17 -0.05 0.15 -0.05 0.14 -0.06 0.12 -0.07 0.11 -0.07 0.1 -0.08 0.09 -0.09 0.08 -0.09 0.08 -0.1 0.07 -0.11 0.07 -0.12 0.06 -0.13 0.05 -0.14 0.05 -0.15 0.04 -0.16 0.04 -0.17 0.03 -0.17 0.03 -0.19 0.02 -0.19 0.02 -0.2 0.01 -0.21 0.01 -0.21 0 -0.22 -0 -0.23 -0 -0.23 -0.01 -0.24 -0.01 -0.24 -0.01 -0.25 -0.01 -0.25 0.01 0.07zm1.28 -0.21l0.01 0.04 0 0.04 -0.01 -0.07zm-21.94 0.14l-1.29 -0.07 0.01 -0.07 0.26 -1.24 0.35 -1.16 0.43 -1.08 0.51 -1.01 0.58 -0.93 0.65 -0.85 0.71 -0.77 0.77 -0.69 0.81 -0.61 0.86 -0.53 0.89 -0.45 0.92 -0.36 0.94 -0.28 0.96 -0.2 0.97 -0.12 0.98 -0.04 0.98 0.04 0.97 0.12 0.96 0.2 0.95 0.28 0.92 0.36 0.89 0.45 0.86 0.53 0.82 0.61 0.77 0.69 0.71 0.77 0.65 0.85 0.58 0.93 0.51 1.01 0.43 1.09 0.35 1.16 0.26 1.24 -1.28 0.21 -0.24 -1.13 -0.32 -1.06 -0.39 -0.98 -0.46 -0.9 -0.52 -0.83 -0.58 -0.75 -0.63 -0.68 -0.68 -0.61 -0.72 -0.54 -0.76 -0.47 -0.79 -0.4 -0.82 -0.32 -0.84 -0.25 -0.86 -0.18 -0.87 -0.11 -0.87 -0.03 -0.87 0.04 -0.87 0.11 -0.86 0.18 -0.84 0.25 -0.82 0.32 -0.79 0.4 -0.76 0.47 -0.72 0.54 -0.68 0.61 -0.63 0.68 -0.58 0.75 -0.52 0.83 -0.46 0.9 -0.39 0.98 -0.32 1.05 -0.24 1.13 0.01 -0.07zm-1.29 -0.07l0 -0.03 0.01 -0.04 -0.01 0.07z"/>
     <path id="1" class="fil1" d="M20.35 33.78c-0.16,2.88 -0.05,5.13 2.98,5.25l16.25 -0.01c2.82,-0.2 2.86,-2.52 2.72,-5.24 -2.18,-13.05 -19.8,-13.03 -21.95,0z"/>
    </g>
    <g>
     <path class="fil0" d="M8.25 20.88l-0.92 -0.91 0 0 0.12 -0.11 0.12 -0.11 0.12 -0.1 0.12 -0.1 0.13 -0.1 0.13 -0.09 0.13 -0.09 0.13 -0.08 0.13 -0.08 0.13 -0.08 0.13 -0.08 0.13 -0.07 0.13 -0.07 0.13 -0.07 0.13 -0.07 0.12 -0.07 0.12 -0.07 0.12 -0.06 0.12 -0.06 0.12 -0.06 0.12 -0.06 0.11 -0.06 0.11 -0.06 0.1 -0.06 0.1 -0.06 0.09 -0.06 0.09 -0.06 0.09 -0.06 0.08 -0.05 0.07 -0.05 0.07 -0.05 0.06 -0.05 0.87 0.96 -0.1 0.09 -0.1 0.08 -0.11 0.08 -0.11 0.08 -0.11 0.07 -0.11 0.07 -0.11 0.07 -0.12 0.07 -0.12 0.07 -0.12 0.07 -0.12 0.06 -0.12 0.06 -0.12 0.06 -0.12 0.06 -0.12 0.06 -0.12 0.06 -0.12 0.06 -0.12 0.06 -0.12 0.06 -0.12 0.07 -0.11 0.07 -0.11 0.07 -0.11 0.07 -0.11 0.07 -0.11 0.07 -0.11 0.07 -0.1 0.07 -0.1 0.07 -0.1 0.08 -0.09 0.08 -0.09 0.08 -0.09 0.08 0 0zm-2.42 3.3l-1.18 -0.54 0 0 0.07 -0.14 0.07 -0.14 0.07 -0.14 0.07 -0.14 0.07 -0.13 0.07 -0.13 0.07 -0.13 0.08 -0.13 0.08 -0.13 0.08 -0.12 0.08 -0.12 0.08 -0.12 0.08 -0.12 0.08 -0.12 0.08 -0.12 0.09 -0.11 0.09 -0.11 0.09 -0.11 0.09 -0.11 0.09 -0.11 0.09 -0.1 0.09 -0.11 0.09 -0.11 0.09 -0.1 0.09 -0.1 0.09 -0.1 0.09 -0.1 0.09 -0.1 0.09 -0.1 0.09 -0.1 0.1 -0.1 0.09 -0.09 0.92 0.91 -0.09 0.09 -0.09 0.09 -0.09 0.09 -0.09 0.09 -0.09 0.09 -0.09 0.09 -0.08 0.09 -0.09 0.1 -0.09 0.09 -0.08 0.09 -0.08 0.1 -0.08 0.1 -0.08 0.1 -0.08 0.1 -0.08 0.1 -0.08 0.1 -0.07 0.1 -0.08 0.1 -0.07 0.1 -0.07 0.11 -0.07 0.11 -0.07 0.11 -0.07 0.11 -0.07 0.11 -0.07 0.11 -0.07 0.11 -0.07 0.12 -0.06 0.12 -0.06 0.12 -0.06 0.12 -0.06 0.12 -0.06 0.12 0 0zm1.04 7.73l0 1.3 -0.12 -0.01 -0.4 -0.09 -0.37 -0.12 -0.35 -0.15 -0.32 -0.18 -0.29 -0.21 -0.27 -0.23 -0.24 -0.25 -0.21 -0.27 -0.18 -0.29 -0.16 -0.3 -0.13 -0.31 -0.11 -0.32 -0.09 -0.33 -0.07 -0.34 -0.05 -0.34 -0.03 -0.35 -0.01 -0.35 0 -0.36 0.02 -0.36 0.03 -0.36 0.04 -0.36 0.06 -0.36 0.07 -0.36 0.08 -0.35 0.08 -0.35 0.09 -0.34 0.1 -0.34 0.11 -0.33 0.11 -0.32 0.12 -0.31 0.13 -0.3 0.13 -0.29 1.18 0.54 -0.12 0.26 -0.11 0.27 -0.11 0.28 -0.1 0.29 -0.1 0.3 -0.09 0.31 -0.09 0.31 -0.08 0.32 -0.07 0.32 -0.06 0.32 -0.05 0.32 -0.04 0.32 -0.03 0.31 -0.02 0.31 -0 0.3 0.01 0.29 0.02 0.28 0.04 0.27 0.05 0.26 0.06 0.25 0.08 0.24 0.09 0.22 0.11 0.2 0.12 0.19 0.13 0.17 0.15 0.16 0.17 0.15 0.19 0.13 0.21 0.12 0.23 0.1 0.26 0.09 0.29 0.07 -0.12 -0.01zm0 1.3l-0.06 0 -0.06 -0.01 0.12 0.01zm11.43 0l-11.43 0 0 -1.3 11.43 0 0.58 0.93 -0.58 0.36zm0.58 -0.36l-0.18 0.36 -0.4 0 0.58 -0.36zm3.34 -8.16l0.93 0.9 0 0 -0.37 0.39 -0.34 0.36 -0.31 0.33 -0.28 0.3 -0.25 0.28 -0.22 0.26 -0.19 0.24 -0.17 0.22 -0.15 0.2 -0.13 0.18 -0.11 0.17 -0.1 0.16 -0.08 0.14 -0.07 0.14 -0.06 0.13 -0.06 0.13 -0.05 0.13 -0.05 0.14 -0.05 0.14 -0.05 0.15 -0.05 0.16 -0.05 0.18 -0.06 0.19 -0.06 0.2 -0.07 0.22 -0.08 0.24 -0.09 0.26 -0.11 0.28 -0.12 0.3 -0.14 0.32 -0.16 0.35 -0.18 0.37 -1.16 -0.57 0.17 -0.35 0.15 -0.32 0.13 -0.3 0.11 -0.27 0.1 -0.25 0.09 -0.24 0.08 -0.22 0.07 -0.2 0.06 -0.19 0.05 -0.18 0.05 -0.17 0.05 -0.17 0.05 -0.17 0.05 -0.17 0.06 -0.17 0.07 -0.17 0.07 -0.18 0.08 -0.18 0.09 -0.18 0.11 -0.19 0.12 -0.2 0.13 -0.2 0.15 -0.21 0.17 -0.22 0.19 -0.24 0.21 -0.26 0.24 -0.27 0.26 -0.29 0.29 -0.32 0.32 -0.34 0.35 -0.37 0.38 -0.39 0 0zm2.18 -1.06l1.16 -0.57 -0.06 0.67 -0.07 0.09 -0.07 0.09 -0.08 0.09 -0.08 0.08 -0.08 0.08 -0.08 0.07 -0.08 0.07 -0.09 0.07 -0.08 0.07 -0.09 0.06 -0.09 0.06 -0.08 0.06 -0.09 0.06 -0.08 0.06 -0.08 0.05 -0.08 0.05 -0.08 0.05 -0.08 0.05 -0.08 0.05 -0.08 0.05 -0.08 0.05 -0.07 0.05 -0.07 0.05 -0.07 0.05 -0.07 0.05 -0.06 0.04 -0.06 0.04 -0.06 0.05 -0.05 0.05 -0.05 0.04 -0.04 0.04 -0.04 0.04 -0.93 -0.9 0.07 -0.07 0.08 -0.07 0.08 -0.07 0.08 -0.06 0.08 -0.06 0.08 -0.06 0.08 -0.06 0.08 -0.05 0.08 -0.06 0.08 -0.06 0.09 -0.05 0.08 -0.05 0.08 -0.05 0.08 -0.05 0.08 -0.05 0.08 -0.05 0.08 -0.05 0.08 -0.05 0.08 -0.05 0.07 -0.05 0.07 -0.05 0.07 -0.05 0.07 -0.05 0.06 -0.05 0.06 -0.05 0.06 -0.05 0.05 -0.05 0.05 -0.05 0.05 -0.05 0.04 -0.05 0.04 -0.05 0.04 -0.05 -0.06 0.67zm1.16 -0.57l0.17 0.35 -0.23 0.32 0.06 -0.67zm-5.91 -3.92l0.52 -1.19 0 0 0.22 0.1 0.21 0.1 0.21 0.11 0.21 0.12 0.21 0.12 0.2 0.12 0.2 0.13 0.2 0.14 0.2 0.14 0.2 0.14 0.19 0.15 0.19 0.15 0.19 0.16 0.18 0.16 0.18 0.16 0.18 0.17 0.17 0.17 0.17 0.17 0.17 0.17 0.16 0.18 0.16 0.18 0.15 0.18 0.15 0.18 0.14 0.18 0.14 0.19 0.13 0.19 0.13 0.19 0.12 0.19 0.11 0.19 0.11 0.19 0.1 0.19 0.1 0.19 -1.16 0.57 -0.08 -0.16 -0.09 -0.16 -0.1 -0.16 -0.1 -0.16 -0.11 -0.16 -0.11 -0.17 -0.12 -0.16 -0.12 -0.16 -0.13 -0.16 -0.13 -0.16 -0.13 -0.16 -0.14 -0.16 -0.14 -0.16 -0.15 -0.16 -0.15 -0.16 -0.15 -0.15 -0.16 -0.15 -0.16 -0.15 -0.16 -0.14 -0.17 -0.14 -0.17 -0.14 -0.17 -0.13 -0.17 -0.13 -0.18 -0.12 -0.18 -0.12 -0.18 -0.11 -0.18 -0.11 -0.18 -0.11 -0.18 -0.1 -0.18 -0.1 -0.18 -0.09 -0.18 -0.08 0 0zm-7.86 -0.51l-0.87 -0.96 0.32 -0.16 0.31 -0.06 0.3 -0.05 0.3 -0.05 0.29 -0.05 0.29 -0.05 0.28 -0.05 0.28 -0.04 0.28 -0.04 0.27 -0.04 0.27 -0.03 0.27 -0.03 0.27 -0.02 0.27 -0.02 0.26 -0.01 0.26 -0.01 0.26 -0 0.26 0 0.26 0.01 0.27 0.02 0.27 0.02 0.27 0.03 0.27 0.04 0.27 0.05 0.27 0.06 0.28 0.06 0.28 0.07 0.28 0.08 0.29 0.09 0.29 0.1 0.29 0.11 0.3 0.12 0.3 0.13 -0.52 1.19 -0.28 -0.12 -0.27 -0.11 -0.26 -0.1 -0.26 -0.09 -0.25 -0.08 -0.25 -0.07 -0.25 -0.06 -0.24 -0.06 -0.24 -0.05 -0.24 -0.04 -0.23 -0.04 -0.23 -0.03 -0.23 -0.02 -0.23 -0.01 -0.23 -0.01 -0.24 -0 -0.23 0 -0.24 0.01 -0.24 0.01 -0.24 0.02 -0.25 0.02 -0.25 0.03 -0.25 0.03 -0.26 0.03 -0.26 0.04 -0.27 0.04 -0.27 0.04 -0.28 0.05 -0.29 0.05 -0.29 0.05 -0.3 0.05 -0.31 0.06 0.32 -0.16zm-0.87 -0.96l0.14 -0.12 0.18 -0.03 -0.32 0.16z"/>
     <path id="1" class="fil2" d="M11.35 18.13c-0.84,0.76 -2.49,1.22 -3.55,2.29 -0.98,0.99 -1.91,2.06 -2.56,3.48 -1.32,2.9 -2.16,7.93 1.63,8.65l11.43 0c1.97,-4.01 0.18,-3.09 4.38,-7.42 0.6,-0.62 1.73,-1.02 2.3,-1.8 -0.93,-1.88 -2.94,-3.86 -5.07,-4.8 -3.13,-1.38 -5.22,-1.01 -8.55,-0.4z"/>
    </g>
    <g>
     <path class="fil0" d="M57.79 28.84l1.3 -0.02 0 0 0 0.22 -0 0.21 -0.01 0.2 -0.01 0.19 -0.02 0.18 -0.02 0.17 -0.03 0.17 -0.03 0.16 -0.04 0.15 -0.04 0.14 -0.04 0.14 -0.05 0.13 -0.05 0.13 -0.05 0.12 -0.06 0.11 -0.06 0.11 -0.06 0.1 -0.06 0.1 -0.06 0.09 -0.06 0.09 -0.07 0.09 -0.06 0.08 -0.06 0.08 -0.06 0.08 -0.06 0.07 -0.06 0.08 -0.06 0.08 -0.06 0.08 -0.06 0.08 -0.06 0.08 -0.06 0.09 -0.06 0.09 -1.1 -0.68 0.07 -0.12 0.07 -0.11 0.07 -0.1 0.07 -0.1 0.07 -0.1 0.07 -0.09 0.06 -0.08 0.07 -0.08 0.06 -0.07 0.06 -0.07 0.05 -0.07 0.05 -0.07 0.05 -0.07 0.04 -0.06 0.04 -0.06 0.04 -0.06 0.04 -0.07 0.04 -0.07 0.03 -0.07 0.03 -0.08 0.03 -0.08 0.03 -0.09 0.03 -0.1 0.02 -0.1 0.02 -0.11 0.02 -0.12 0.02 -0.13 0.01 -0.14 0.01 -0.15 0.01 -0.17 0 -0.18 -0 -0.19 0 0zm-0.73 -4.12l1.21 -0.46 0 0 0.05 0.13 0.05 0.14 0.05 0.14 0.04 0.13 0.04 0.13 0.04 0.14 0.04 0.14 0.04 0.14 0.04 0.14 0.04 0.14 0.03 0.14 0.03 0.14 0.03 0.14 0.03 0.14 0.03 0.14 0.02 0.14 0.02 0.14 0.02 0.14 0.02 0.14 0.02 0.14 0.02 0.15 0.02 0.15 0.01 0.14 0.01 0.15 0.01 0.15 0.01 0.15 0.01 0.15 0.01 0.15 0.01 0.15 0.01 0.15 0 0.15 0 0.15 -1.3 0.02 -0 -0.14 -0 -0.14 -0.01 -0.14 -0.01 -0.14 -0.01 -0.14 -0.01 -0.14 -0.01 -0.14 -0.01 -0.13 -0.01 -0.13 -0.01 -0.14 -0.01 -0.13 -0.02 -0.13 -0.02 -0.13 -0.02 -0.13 -0.02 -0.13 -0.02 -0.13 -0.02 -0.13 -0.02 -0.13 -0.03 -0.13 -0.03 -0.12 -0.03 -0.13 -0.03 -0.12 -0.03 -0.12 -0.03 -0.12 -0.03 -0.12 -0.04 -0.12 -0.04 -0.12 -0.04 -0.12 -0.04 -0.12 -0.04 -0.12 -0.04 -0.12 -0.04 -0.12 0 0zm-3.91 -4.95l0.53 -1.18 0.21 0.15 0.09 0.09 0.09 0.09 0.1 0.09 0.11 0.1 0.11 0.1 0.12 0.1 0.12 0.1 0.13 0.11 0.13 0.11 0.14 0.11 0.14 0.12 0.14 0.12 0.15 0.13 0.15 0.14 0.15 0.14 0.15 0.15 0.15 0.16 0.16 0.16 0.16 0.17 0.15 0.18 0.16 0.19 0.16 0.2 0.15 0.21 0.15 0.22 0.15 0.23 0.15 0.24 0.15 0.26 0.14 0.27 0.14 0.28 0.14 0.3 0.13 0.31 0.13 0.32 -1.21 0.46 -0.12 -0.29 -0.12 -0.28 -0.12 -0.26 -0.12 -0.25 -0.12 -0.24 -0.13 -0.22 -0.13 -0.21 -0.13 -0.2 -0.13 -0.19 -0.13 -0.18 -0.13 -0.17 -0.13 -0.16 -0.13 -0.16 -0.13 -0.15 -0.14 -0.14 -0.13 -0.14 -0.14 -0.13 -0.13 -0.13 -0.14 -0.12 -0.13 -0.12 -0.13 -0.11 -0.13 -0.11 -0.13 -0.11 -0.13 -0.11 -0.13 -0.11 -0.13 -0.11 -0.13 -0.11 -0.13 -0.11 -0.12 -0.11 -0.12 -0.11 -0.12 -0.12 -0.12 -0.12 0.21 0.15zm0.53 -1.18l0.12 0.05 0.09 0.1 -0.21 -0.15zm-2.37 -1.06l2.37 1.06 -0.53 1.18 -2.37 -1.06 0.43 -1.22 0.1 0.03zm-0.1 -0.03l0.05 0.01 0.05 0.02 -0.1 -0.03zm-12.99 5.44l-1.05 0.76 -0.06 -0.67 0.21 -0.4 0.23 -0.39 0.25 -0.38 0.27 -0.37 0.28 -0.36 0.3 -0.35 0.32 -0.34 0.33 -0.33 0.35 -0.32 0.37 -0.3 0.38 -0.29 0.4 -0.27 0.41 -0.26 0.42 -0.24 0.44 -0.23 0.45 -0.21 0.47 -0.19 0.48 -0.17 0.49 -0.15 0.5 -0.13 0.51 -0.11 0.52 -0.09 0.53 -0.07 0.54 -0.05 0.55 -0.03 0.56 -0 0.57 0.02 0.58 0.05 0.59 0.07 0.59 0.1 0.6 0.12 0.6 0.15 -0.34 1.25 -0.55 -0.14 -0.55 -0.11 -0.54 -0.09 -0.53 -0.06 -0.52 -0.04 -0.52 -0.02 -0.51 0 -0.5 0.02 -0.49 0.04 -0.48 0.06 -0.47 0.08 -0.46 0.1 -0.45 0.12 -0.44 0.14 -0.42 0.15 -0.41 0.17 -0.4 0.19 -0.39 0.2 -0.38 0.21 -0.36 0.23 -0.35 0.24 -0.34 0.26 -0.32 0.27 -0.31 0.28 -0.29 0.29 -0.28 0.3 -0.26 0.31 -0.25 0.32 -0.23 0.33 -0.22 0.33 -0.2 0.34 -0.18 0.35 -0.06 -0.67zm-1.05 0.76l-0.23 -0.32 0.18 -0.35 0.06 0.67zm3.28 0.97l-0.93 0.91 0 0 -0.04 -0.04 -0.05 -0.04 -0.05 -0.04 -0.05 -0.04 -0.06 -0.05 -0.06 -0.05 -0.06 -0.04 -0.07 -0.05 -0.07 -0.05 -0.07 -0.05 -0.07 -0.05 -0.08 -0.05 -0.08 -0.05 -0.08 -0.05 -0.08 -0.05 -0.08 -0.05 -0.08 -0.05 -0.08 -0.05 -0.09 -0.06 -0.09 -0.06 -0.08 -0.06 -0.08 -0.06 -0.09 -0.07 -0.08 -0.07 -0.08 -0.07 -0.09 -0.07 -0.08 -0.08 -0.08 -0.08 -0.08 -0.08 -0.08 -0.09 -0.07 -0.09 -0.07 -0.09 1.05 -0.76 0.04 0.05 0.04 0.05 0.04 0.05 0.05 0.05 0.05 0.05 0.06 0.05 0.05 0.05 0.06 0.05 0.06 0.05 0.06 0.05 0.07 0.05 0.07 0.05 0.07 0.05 0.07 0.05 0.08 0.05 0.08 0.05 0.08 0.05 0.08 0.05 0.08 0.05 0.08 0.05 0.08 0.05 0.08 0.05 0.08 0.05 0.08 0.06 0.08 0.06 0.08 0.06 0.08 0.06 0.08 0.06 0.08 0.07 0.08 0.07 0.08 0.07 0.07 0.07 0 0zm3.91 7.24l0.03 1.3 -0.6 -0.36 -0.18 -0.37 -0.16 -0.34 -0.14 -0.32 -0.12 -0.3 -0.11 -0.28 -0.09 -0.26 -0.08 -0.24 -0.07 -0.22 -0.07 -0.21 -0.06 -0.19 -0.05 -0.18 -0.05 -0.17 -0.05 -0.16 -0.05 -0.15 -0.05 -0.14 -0.05 -0.14 -0.06 -0.14 -0.06 -0.14 -0.07 -0.14 -0.08 -0.15 -0.1 -0.16 -0.11 -0.17 -0.13 -0.18 -0.15 -0.2 -0.17 -0.22 -0.19 -0.23 -0.22 -0.25 -0.25 -0.28 -0.27 -0.3 -0.3 -0.32 -0.33 -0.35 -0.37 -0.38 0.93 -0.91 0.37 0.38 0.34 0.36 0.31 0.33 0.28 0.31 0.26 0.29 0.23 0.27 0.21 0.25 0.19 0.24 0.17 0.23 0.15 0.22 0.14 0.21 0.12 0.2 0.11 0.19 0.1 0.19 0.09 0.18 0.07 0.18 0.07 0.18 0.06 0.17 0.06 0.17 0.05 0.17 0.05 0.17 0.05 0.18 0.06 0.19 0.06 0.19 0.07 0.21 0.08 0.22 0.09 0.24 0.1 0.25 0.11 0.27 0.13 0.3 0.15 0.32 0.17 0.35 -0.6 -0.36zm0.03 1.3l-0.41 0.01 -0.18 -0.37 0.6 0.36zm12.11 -1.19l1.1 0.68 -0.48 0.3 -0.39 0.04 -0.39 0.04 -0.39 0.03 -0.39 0.03 -0.39 0.02 -0.4 0.02 -0.4 0.02 -0.4 0.01 -0.4 0.01 -0.4 0.01 -0.4 0.01 -0.4 0 -0.4 0 -0.41 0 -0.4 -0 -0.41 -0 -0.4 -0 -0.41 -0 -0.4 -0.01 -0.4 -0.01 -0.4 -0.01 -0.4 -0.01 -0.4 -0.01 -0.4 -0.01 -0.4 -0 -0.4 -0 -0.4 -0 -0.39 -0 -0.39 0 -0.39 0 -0.39 0 -0.38 0.01 -0.03 -1.3 0.39 -0.01 0.4 -0 0.4 -0 0.4 -0 0.4 0 0.4 0 0.4 0 0.4 0 0.4 0.01 0.4 0.01 0.4 0.01 0.4 0.01 0.4 0.01 0.4 0.01 0.4 0 0.4 0 0.4 0 0.4 0 0.4 0 0.4 -0 0.4 -0 0.39 -0.01 0.39 -0.01 0.39 -0.01 0.39 -0.01 0.39 -0.02 0.38 -0.02 0.38 -0.02 0.38 -0.03 0.38 -0.03 0.37 -0.04 0.37 -0.04 -0.48 0.3zm1.1 0.68l-0.17 0.27 -0.31 0.04 0.48 -0.3z"/>
     <path id="1" class="fil3" d="M57.04 32.36c0.7,-1.13 1.43,-1.27 1.39,-3.53 -0.03,-1.58 -0.25,-2.98 -0.77,-4.34 -1.28,-3.36 -3.19,-4.16 -4.26,-5.31l-2.37 -1.06c-6.22,-1.68 -11.34,1.18 -13.35,5.2 0.57,0.78 1.7,1.19 2.3,1.8 4.13,4.22 2.45,3.48 4.38,7.43 4.14,-0.09 8.65,0.27 12.67,-0.2z"/>
    </g>
    <g>
     <path class="fil0" d="M26.61 17.84l-1.27 0.23 0 0 -0.05 -0.33 -0.03 -0.33 -0.02 -0.33 0 -0.32 0.02 -0.32 0.03 -0.31 0.05 -0.3 0.06 -0.3 0.08 -0.29 0.09 -0.28 0.11 -0.28 0.12 -0.27 0.13 -0.26 0.14 -0.25 0.15 -0.25 0.17 -0.24 0.17 -0.23 0.18 -0.22 0.19 -0.21 0.2 -0.2 0.21 -0.19 0.22 -0.18 0.22 -0.17 0.23 -0.16 0.24 -0.15 0.24 -0.14 0.25 -0.13 0.25 -0.11 0.26 -0.1 0.26 -0.09 0.27 -0.08 0.27 -0.06 0.27 1.27 -0.21 0.05 -0.21 0.06 -0.21 0.07 -0.2 0.08 -0.2 0.09 -0.2 0.1 -0.19 0.11 -0.19 0.12 -0.19 0.13 -0.18 0.13 -0.17 0.14 -0.17 0.15 -0.16 0.16 -0.15 0.17 -0.15 0.17 -0.14 0.18 -0.13 0.18 -0.12 0.19 -0.11 0.2 -0.1 0.2 -0.09 0.21 -0.08 0.22 -0.07 0.22 -0.06 0.23 -0.05 0.23 -0.04 0.24 -0.03 0.24 -0.01 0.25 0 0.25 0.01 0.26 0.03 0.26 0.04 0.27 0 0zm5.89 3.77l0.31 1.26 0 0 -0.36 0.08 -0.35 0.06 -0.35 0.04 -0.34 0.02 -0.34 0 -0.33 -0.02 -0.33 -0.04 -0.32 -0.05 -0.31 -0.07 -0.31 -0.09 -0.3 -0.1 -0.29 -0.12 -0.28 -0.13 -0.27 -0.15 -0.26 -0.16 -0.25 -0.17 -0.24 -0.18 -0.23 -0.19 -0.22 -0.2 -0.21 -0.21 -0.2 -0.22 -0.19 -0.23 -0.18 -0.24 -0.16 -0.25 -0.15 -0.25 -0.14 -0.26 -0.13 -0.26 -0.11 -0.27 -0.1 -0.27 -0.09 -0.28 -0.07 -0.28 -0.06 -0.28 1.27 -0.23 0.05 0.22 0.06 0.22 0.07 0.22 0.08 0.21 0.09 0.21 0.1 0.21 0.11 0.21 0.12 0.2 0.13 0.19 0.14 0.19 0.15 0.18 0.16 0.18 0.17 0.17 0.17 0.16 0.18 0.15 0.19 0.14 0.2 0.13 0.2 0.12 0.21 0.11 0.22 0.1 0.22 0.09 0.23 0.08 0.24 0.07 0.24 0.06 0.25 0.04 0.26 0.03 0.26 0.02 0.27 0 0.27 -0.01 0.28 -0.03 0.28 -0.05 0.29 -0.06 0 0zm-2.18 -9.33l-0.27 -1.27 0 0 0.7 -0.11 0.67 -0.04 0.65 0.03 0.62 0.09 0.59 0.15 0.55 0.21 0.52 0.26 0.48 0.31 0.44 0.36 0.4 0.4 0.36 0.43 0.32 0.46 0.28 0.48 0.23 0.5 0.19 0.52 0.15 0.54 0.1 0.55 0.06 0.55 0.01 0.56 -0.04 0.56 -0.08 0.55 -0.14 0.54 -0.19 0.53 -0.24 0.51 -0.3 0.49 -0.35 0.47 -0.4 0.43 -0.46 0.4 -0.51 0.35 -0.57 0.31 -0.62 0.26 -0.67 0.2 -0.31 -1.26 0.56 -0.17 0.5 -0.21 0.45 -0.24 0.4 -0.27 0.35 -0.3 0.31 -0.33 0.27 -0.36 0.23 -0.38 0.19 -0.4 0.15 -0.41 0.11 -0.43 0.07 -0.44 0.03 -0.44 -0.01 -0.45 -0.05 -0.45 -0.08 -0.44 -0.12 -0.43 -0.16 -0.42 -0.19 -0.41 -0.22 -0.39 -0.25 -0.36 -0.28 -0.34 -0.31 -0.31 -0.34 -0.27 -0.37 -0.24 -0.4 -0.2 -0.42 -0.16 -0.45 -0.12 -0.48 -0.07 -0.51 -0.02 -0.54 0.03 -0.57 0.1 0 0z"/>
     <path id="1" class="fil4" d="M30.19 11.65c-2.57,0.55 -4.81,3.07 -4.21,6.31 0.49,2.69 3.2,5.15 6.68,4.28 6.85,-1.71 4.44,-12.07 -2.47,-10.59z"/>
    </g>
    <g>
     <path class="fil0" d="M52.14 9.95l1.29 -0.14 0 0 0.02 0.28 0.01 0.27 0 0.27 -0.01 0.26 -0.02 0.25 -0.03 0.25 -0.04 0.25 -0.04 0.24 -0.05 0.23 -0.06 0.23 -0.07 0.22 -0.08 0.22 -0.09 0.21 -0.09 0.2 -0.1 0.2 -0.11 0.19 -0.11 0.18 -0.12 0.18 -0.13 0.17 -0.13 0.17 -0.14 0.16 -0.14 0.15 -0.15 0.15 -0.15 0.14 -0.16 0.13 -0.16 0.12 -0.16 0.12 -0.17 0.11 -0.17 0.1 -0.17 0.1 -0.17 0.09 -0.18 0.08 -0.53 -1.18 0.13 -0.06 0.13 -0.07 0.13 -0.07 0.13 -0.08 0.12 -0.08 0.12 -0.09 0.12 -0.09 0.12 -0.1 0.11 -0.1 0.11 -0.11 0.11 -0.11 0.1 -0.12 0.1 -0.12 0.09 -0.13 0.09 -0.13 0.09 -0.14 0.08 -0.14 0.08 -0.15 0.07 -0.15 0.07 -0.16 0.06 -0.17 0.05 -0.17 0.05 -0.18 0.04 -0.18 0.04 -0.19 0.03 -0.19 0.02 -0.2 0.01 -0.21 0.01 -0.21 -0 -0.22 -0.01 -0.22 -0.02 -0.23 0 0zm-3.11 -3.89l0.61 -1.14 -0.05 -0.03 0.18 0.08 0.18 0.08 0.17 0.08 0.17 0.09 0.17 0.09 0.17 0.09 0.17 0.1 0.16 0.1 0.16 0.11 0.16 0.11 0.15 0.12 0.15 0.12 0.14 0.13 0.14 0.13 0.14 0.14 0.13 0.15 0.13 0.15 0.12 0.16 0.12 0.17 0.11 0.17 0.11 0.18 0.1 0.19 0.09 0.19 0.09 0.2 0.08 0.2 0.07 0.21 0.06 0.22 0.06 0.22 0.05 0.23 0.04 0.24 0.04 0.24 0.03 0.25 -1.29 0.14 -0.03 -0.21 -0.03 -0.2 -0.04 -0.19 -0.04 -0.19 -0.05 -0.18 -0.05 -0.17 -0.06 -0.16 -0.06 -0.16 -0.06 -0.15 -0.07 -0.14 -0.07 -0.14 -0.08 -0.13 -0.08 -0.13 -0.09 -0.12 -0.09 -0.12 -0.09 -0.11 -0.1 -0.11 -0.1 -0.1 -0.11 -0.1 -0.11 -0.1 -0.11 -0.09 -0.12 -0.09 -0.12 -0.09 -0.13 -0.09 -0.13 -0.08 -0.13 -0.08 -0.14 -0.08 -0.14 -0.08 -0.15 -0.07 -0.15 -0.07 -0.15 -0.07 -0.16 -0.07 -0.05 -0.03zm0.05 0.03l-0.03 -0.01 -0.02 -0.01 0.05 0.03zm-2.76 -0.21l-0.31 -1.26 -0.03 0.01 0.11 -0.03 0.11 -0.03 0.11 -0.03 0.11 -0.03 0.11 -0.02 0.11 -0.02 0.11 -0.02 0.12 -0.02 0.11 -0.01 0.11 -0.01 0.12 -0.01 0.12 -0 0.12 -0 0.12 0 0.11 0 0.12 0.01 0.12 0.01 0.11 0.01 0.11 0.01 0.12 0.02 0.12 0.02 0.12 0.02 0.11 0.03 0.11 0.03 0.12 0.03 0.11 0.04 0.11 0.04 0.11 0.04 0.11 0.05 0.11 0.05 0.11 0.05 0.11 0.06 -0.61 1.14 -0.07 -0.04 -0.08 -0.04 -0.08 -0.03 -0.08 -0.03 -0.08 -0.03 -0.08 -0.03 -0.08 -0.03 -0.08 -0.02 -0.08 -0.02 -0.08 -0.02 -0.08 -0.02 -0.08 -0.02 -0.08 -0.01 -0.09 -0.01 -0.09 -0.01 -0.08 -0.01 -0.08 -0 -0.09 -0 -0.09 -0 -0.08 0 -0.08 0 -0.09 0.01 -0.09 0.01 -0.09 0.01 -0.09 0.01 -0.09 0.01 -0.09 0.02 -0.09 0.02 -0.09 0.02 -0.09 0.02 -0.08 0.02 -0.09 0.03 -0.03 0.01zm0.03 -0.01l-0.01 0 -0.02 0 0.03 -0.01zm-3.14 2.19l-1.12 -0.65 0 0 0.08 -0.13 0.08 -0.13 0.08 -0.13 0.09 -0.12 0.09 -0.12 0.09 -0.12 0.1 -0.12 0.1 -0.11 0.1 -0.11 0.11 -0.11 0.1 -0.1 0.11 -0.1 0.11 -0.1 0.11 -0.09 0.12 -0.09 0.12 -0.09 0.12 -0.08 0.13 -0.08 0.13 -0.08 0.13 -0.08 0.13 -0.07 0.14 -0.07 0.14 -0.07 0.14 -0.06 0.14 -0.06 0.15 -0.06 0.15 -0.05 0.15 -0.05 0.16 -0.05 0.16 -0.05 0.16 -0.04 0.17 -0.04 0.31 1.26 -0.14 0.04 -0.14 0.04 -0.13 0.04 -0.13 0.04 -0.13 0.04 -0.12 0.05 -0.12 0.05 -0.12 0.05 -0.11 0.05 -0.11 0.05 -0.11 0.06 -0.11 0.06 -0.1 0.06 -0.1 0.06 -0.1 0.06 -0.1 0.07 -0.09 0.07 -0.09 0.07 -0.09 0.07 -0.09 0.07 -0.08 0.08 -0.08 0.08 -0.08 0.08 -0.08 0.08 -0.08 0.09 -0.07 0.09 -0.07 0.09 -0.07 0.09 -0.07 0.1 -0.07 0.1 -0.07 0.1 -0.06 0.11 0 0zm-0.2 4.43l-1.17 0.56 0 -0 -0.08 -0.17 -0.07 -0.17 -0.07 -0.18 -0.06 -0.18 -0.05 -0.18 -0.05 -0.18 -0.04 -0.18 -0.04 -0.18 -0.03 -0.18 -0.03 -0.18 -0.02 -0.19 -0.01 -0.18 -0.01 -0.19 -0 -0.18 0 -0.19 0.01 -0.18 0.01 -0.18 0.02 -0.18 0.02 -0.18 0.03 -0.18 0.03 -0.18 0.04 -0.18 0.04 -0.18 0.05 -0.18 0.05 -0.17 0.06 -0.17 0.06 -0.17 0.07 -0.17 0.07 -0.16 0.08 -0.16 0.08 -0.16 0.09 -0.15 1.12 0.65 -0.07 0.12 -0.06 0.12 -0.06 0.12 -0.06 0.13 -0.05 0.13 -0.05 0.13 -0.04 0.13 -0.04 0.14 -0.04 0.14 -0.04 0.14 -0.03 0.14 -0.03 0.14 -0.02 0.15 -0.02 0.14 -0.01 0.15 -0.01 0.15 -0.01 0.15 -0 0.15 0 0.15 0.01 0.15 0.01 0.15 0.02 0.15 0.02 0.15 0.02 0.14 0.03 0.14 0.03 0.14 0.04 0.14 0.04 0.14 0.04 0.14 0.05 0.13 0.06 0.13 0.06 0.13 0 -0zm6.74 2.05l0.53 1.18 0.32 -0.32 -0.13 0.21 -0.15 0.17 -0.17 0.14 -0.18 0.12 -0.19 0.1 -0.21 0.1 -0.23 0.08 -0.24 0.08 -0.25 0.07 -0.27 0.05 -0.28 0.04 -0.29 0.03 -0.3 0.02 -0.31 0.01 -0.32 -0.01 -0.33 -0.03 -0.33 -0.04 -0.34 -0.06 -0.34 -0.08 -0.34 -0.1 -0.34 -0.12 -0.34 -0.15 -0.34 -0.17 -0.33 -0.2 -0.32 -0.22 -0.32 -0.25 -0.3 -0.28 -0.29 -0.31 -0.28 -0.34 -0.26 -0.37 -0.24 -0.4 -0.22 -0.43 1.17 -0.56 0.18 0.36 0.2 0.32 0.21 0.3 0.22 0.27 0.23 0.24 0.24 0.22 0.25 0.2 0.25 0.17 0.26 0.15 0.26 0.13 0.27 0.12 0.27 0.1 0.27 0.08 0.27 0.07 0.27 0.05 0.27 0.04 0.26 0.02 0.26 0.01 0.25 -0 0.24 -0.02 0.23 -0.03 0.22 -0.03 0.2 -0.04 0.19 -0.05 0.17 -0.05 0.15 -0.06 0.13 -0.06 0.11 -0.06 0.07 -0.05 0.04 -0.04 0.01 -0.01 -0.02 0.03 0.32 -0.32zm-0.32 0.32l0.1 -0.22 0.22 -0.1 -0.32 0.32z"/>
     <path id="1" class="fil5" d="M50.03 15.12c1.67,-0.75 3.05,-2.51 2.76,-5.24 -0.26,-2.51 -1.64,-3.63 -3.45,-4.39 -0.97,-0.52 -2.11,-0.55 -3.16,-0.24 -1.66,0.41 -2.77,1.2 -3.51,2.48 -0.83,1.43 -1,3.43 -0.23,5.03 2.09,4.35 7.16,3.32 7.59,2.36z"/>
    </g>
    <g>
     <path class="fil0" d="M11.22 7.94l-1.12 -0.65 0 0 0.08 -0.14 0.08 -0.13 0.08 -0.13 0.08 -0.12 0.08 -0.11 0.08 -0.1 0.08 -0.1 0.08 -0.09 0.08 -0.08 0.07 -0.08 0.07 -0.08 0.07 -0.07 0.07 -0.06 0.07 -0.06 0.06 -0.05 0.07 -0.05 0.06 -0.04 0.05 -0.04 0.05 -0.04 0.04 -0.03 0.05 -0.03 0.04 -0.03 0.03 -0.03 0.03 -0.03 0.03 -0.02 0.02 -0.02 0.02 -0.01 0.02 -0.02 0.02 -0.02 0.01 -0.02 0.01 -0.02 0.01 -0.02 1.12 0.64 -0.05 0.08 -0.05 0.08 -0.05 0.07 -0.05 0.06 -0.06 0.06 -0.06 0.06 -0.06 0.05 -0.05 0.05 -0.05 0.04 -0.05 0.04 -0.05 0.04 -0.05 0.03 -0.05 0.04 -0.04 0.03 -0.05 0.04 -0.05 0.04 -0.04 0.03 -0.05 0.04 -0.05 0.04 -0.05 0.04 -0.05 0.04 -0.05 0.05 -0.05 0.05 -0.05 0.06 -0.05 0.06 -0.06 0.07 -0.06 0.08 -0.06 0.09 -0.06 0.09 -0.06 0.1 -0.07 0.11 -0.07 0.12 0 0zm1.59 6.85l-0.34 1.25 -0.35 -0.23 -0.01 -0.02 -0.05 -0.05 -0.08 -0.08 -0.1 -0.09 -0.12 -0.11 -0.14 -0.12 -0.15 -0.14 -0.16 -0.15 -0.17 -0.17 -0.17 -0.18 -0.18 -0.19 -0.18 -0.21 -0.18 -0.22 -0.18 -0.23 -0.17 -0.25 -0.16 -0.26 -0.16 -0.28 -0.14 -0.29 -0.13 -0.31 -0.11 -0.32 -0.1 -0.34 -0.07 -0.35 -0.05 -0.37 -0.02 -0.38 0 -0.39 0.04 -0.4 0.07 -0.41 0.1 -0.42 0.13 -0.43 0.17 -0.44 0.21 -0.45 0.25 -0.46 1.12 0.65 -0.21 0.39 -0.17 0.38 -0.14 0.36 -0.11 0.35 -0.08 0.33 -0.05 0.32 -0.03 0.31 -0 0.3 0.02 0.28 0.04 0.27 0.05 0.26 0.07 0.26 0.09 0.25 0.1 0.24 0.11 0.23 0.12 0.22 0.13 0.21 0.14 0.2 0.15 0.19 0.15 0.19 0.15 0.18 0.15 0.17 0.15 0.16 0.15 0.15 0.14 0.14 0.14 0.13 0.13 0.12 0.12 0.11 0.11 0.1 0.1 0.1 0.1 0.1 0.1 0.11 -0.35 -0.23zm-0.34 1.25l-0.21 -0.06 -0.13 -0.17 0.35 0.23zm0.46 -9.98l-1.12 -0.64 0.36 -0.29 1.04 -0.3 0.98 -0.18 0.93 -0.07 0.88 0.03 0.82 0.13 0.76 0.22 0.7 0.3 0.63 0.38 0.56 0.45 0.49 0.5 0.42 0.55 0.35 0.59 0.27 0.63 0.2 0.65 0.13 0.67 0.06 0.67 -0.01 0.68 -0.08 0.67 -0.16 0.66 -0.23 0.64 -0.31 0.61 -0.38 0.57 -0.46 0.53 -0.53 0.48 -0.61 0.41 -0.68 0.34 -0.75 0.26 -0.82 0.17 -0.88 0.08 -0.94 -0.02 -1.01 -0.13 -1.07 -0.24 0.34 -1.25 0.96 0.21 0.88 0.11 0.81 0.02 0.73 -0.06 0.66 -0.14 0.59 -0.2 0.53 -0.26 0.47 -0.32 0.41 -0.36 0.35 -0.41 0.29 -0.44 0.24 -0.47 0.18 -0.5 0.12 -0.52 0.07 -0.53 0.01 -0.54 -0.05 -0.54 -0.11 -0.53 -0.16 -0.51 -0.22 -0.49 -0.27 -0.46 -0.32 -0.43 -0.38 -0.39 -0.43 -0.34 -0.48 -0.29 -0.54 -0.23 -0.6 -0.17 -0.66 -0.1 -0.73 -0.03 -0.79 0.06 -0.86 0.16 -0.93 0.26 0.36 -0.29zm-1.12 -0.64l0.12 -0.21 0.23 -0.08 -0.36 0.29z"/>
     <path id="1" class="fil6" d="M12.36 5.75c-0.32,0.56 -0.88,0.46 -1.7,1.87 -2.67,4.59 1.51,7.19 1.98,7.8 11.18,3.01 10.51,-13.27 -0.27,-9.67z"/>
    </g>
   </g>
  </g>
 </g>
</svg>
